<svg xmlns="http://www.w3.org/2000/svg" viewBox="0 0 240 240" width="240" height="240">
  <defs>
    <linearGradient id="glg" x1="0" y1="1" x2="1" y2="0">
      <stop offset="0" stop-color="#36d1dc"/><stop offset="1" stop-color="#5b86e5"/>
    </linearGradient>
  </defs>
  <rect x="8" y="8" width="224" height="224" rx="48" fill="#0a1626"/>
  <!-- ground baseline -->
  <line x1="40" y1="186" x2="200" y2="186" stroke="#2b3a52" stroke-width="8" stroke-linecap="round"/>
  <!-- ground station: tower + dish -->
  <line x1="78" y1="186" x2="78" y2="132" stroke="url(#glg)" stroke-width="9" stroke-linecap="round"/>
  <path d="M62 132 a26 22 0 0 1 52 -6 L78 132 Z" fill="url(#glg)"/>
  <circle cx="92" cy="116" r="6" fill="#0a1626"/>
  <!-- uplink waves -->
  <g fill="none" stroke="url(#glg)" stroke-width="7" stroke-linecap="round">
    <path d="M122 96 a40 40 0 0 1 34 -22" opacity="0.9"/>
    <path d="M126 116 a64 64 0 0 1 54 -34" opacity="0.55"/>
  </g>
  <!-- aircraft aloft -->
  <g stroke="url(#glg)" stroke-width="8" stroke-linecap="round">
    <line x1="150" y1="64" x2="186" y2="64"/>
    <line x1="168" y1="56" x2="168" y2="72"/>
  </g>
  <circle cx="168" cy="64" r="6" fill="#fff"/>
</svg>
